<mxfile host="app.diagrams.net" agent="Mozilla/5.0 (Windows NT 10.0; Win64; x64) AppleWebKit/537.36 (KHTML, like Gecko) Chrome/128.0.0.0 Safari/537.36" version="24.7.10">
  <diagram name="Page-1" id="NzJZfenm0RadfBUArjNZ">
    <mxGraphModel dx="2072" dy="1857" grid="1" gridSize="10" guides="1" tooltips="1" connect="1" arrows="1" fold="1" page="1" pageScale="1" pageWidth="850" pageHeight="1100" math="0" shadow="0">
      <root>
        <mxCell id="0" />
        <mxCell id="1" parent="0" />
        <mxCell id="lz8E1Br5oGqlgCtG2SRh-7" value="" style="rounded=1;whiteSpace=wrap;html=1;" vertex="1" parent="1">
          <mxGeometry x="60" y="-10" width="670" height="460" as="geometry" />
        </mxCell>
        <mxCell id="lz8E1Br5oGqlgCtG2SRh-10" value="" style="edgeStyle=orthogonalEdgeStyle;rounded=0;orthogonalLoop=1;jettySize=auto;html=1;" edge="1" parent="1" source="lz8E1Br5oGqlgCtG2SRh-1" target="lz8E1Br5oGqlgCtG2SRh-2">
          <mxGeometry relative="1" as="geometry" />
        </mxCell>
        <mxCell id="lz8E1Br5oGqlgCtG2SRh-17" value="Managed" style="edgeLabel;html=1;align=center;verticalAlign=middle;resizable=0;points=[];" vertex="1" connectable="0" parent="lz8E1Br5oGqlgCtG2SRh-10">
          <mxGeometry x="-0.2066" y="-2" relative="1" as="geometry">
            <mxPoint as="offset" />
          </mxGeometry>
        </mxCell>
        <mxCell id="lz8E1Br5oGqlgCtG2SRh-1" value="Windows Server" style="outlineConnect=0;dashed=0;verticalLabelPosition=bottom;verticalAlign=top;align=center;html=1;shape=mxgraph.aws3.traditional_server;fillColor=#7D7C7C;gradientColor=none;" vertex="1" parent="1">
          <mxGeometry x="140" y="283" width="46.5" height="63" as="geometry" />
        </mxCell>
        <mxCell id="lz8E1Br5oGqlgCtG2SRh-16" style="edgeStyle=orthogonalEdgeStyle;rounded=0;orthogonalLoop=1;jettySize=auto;html=1;startArrow=classic;startFill=1;" edge="1" parent="1" source="lz8E1Br5oGqlgCtG2SRh-2" target="lz8E1Br5oGqlgCtG2SRh-6">
          <mxGeometry relative="1" as="geometry" />
        </mxCell>
        <mxCell id="lz8E1Br5oGqlgCtG2SRh-23" value="Manage Agents" style="edgeLabel;html=1;align=center;verticalAlign=middle;resizable=0;points=[];" vertex="1" connectable="0" parent="lz8E1Br5oGqlgCtG2SRh-16">
          <mxGeometry x="-0.2303" y="2" relative="1" as="geometry">
            <mxPoint as="offset" />
          </mxGeometry>
        </mxCell>
        <mxCell id="lz8E1Br5oGqlgCtG2SRh-2" value="Fleet Server" style="outlineConnect=0;dashed=0;verticalLabelPosition=bottom;verticalAlign=top;align=center;html=1;shape=mxgraph.aws3.traditional_server;fillColor=#7D7C7C;gradientColor=none;" vertex="1" parent="1">
          <mxGeometry x="363.38" y="283" width="46.5" height="63" as="geometry" />
        </mxCell>
        <mxCell id="lz8E1Br5oGqlgCtG2SRh-3" value="C2 Server" style="outlineConnect=0;dashed=0;verticalLabelPosition=bottom;verticalAlign=top;align=center;html=1;shape=mxgraph.aws3.traditional_server;fillColor=#a20025;fontColor=#ffffff;strokeColor=#6F0000;" vertex="1" parent="1">
          <mxGeometry x="790" y="-86" width="46.5" height="63" as="geometry" />
        </mxCell>
        <mxCell id="lz8E1Br5oGqlgCtG2SRh-15" style="edgeStyle=orthogonalEdgeStyle;rounded=0;orthogonalLoop=1;jettySize=auto;html=1;" edge="1" parent="1" source="lz8E1Br5oGqlgCtG2SRh-4" target="lz8E1Br5oGqlgCtG2SRh-2">
          <mxGeometry relative="1" as="geometry" />
        </mxCell>
        <mxCell id="lz8E1Br5oGqlgCtG2SRh-18" value="Managed" style="edgeLabel;html=1;align=center;verticalAlign=middle;resizable=0;points=[];" vertex="1" connectable="0" parent="lz8E1Br5oGqlgCtG2SRh-15">
          <mxGeometry x="0.0753" relative="1" as="geometry">
            <mxPoint as="offset" />
          </mxGeometry>
        </mxCell>
        <mxCell id="lz8E1Br5oGqlgCtG2SRh-26" style="rounded=0;orthogonalLoop=1;jettySize=auto;html=1;" edge="1" parent="1" source="lz8E1Br5oGqlgCtG2SRh-4" target="lz8E1Br5oGqlgCtG2SRh-6">
          <mxGeometry relative="1" as="geometry" />
        </mxCell>
        <mxCell id="lz8E1Br5oGqlgCtG2SRh-27" value="Forwarded Logs Via Agent" style="edgeLabel;html=1;align=center;verticalAlign=middle;resizable=0;points=[];" vertex="1" connectable="0" parent="lz8E1Br5oGqlgCtG2SRh-26">
          <mxGeometry x="-0.0264" y="2" relative="1" as="geometry">
            <mxPoint as="offset" />
          </mxGeometry>
        </mxCell>
        <mxCell id="lz8E1Br5oGqlgCtG2SRh-4" value="Ubuntu With SSH Enabled" style="outlineConnect=0;dashed=0;verticalLabelPosition=bottom;verticalAlign=top;align=center;html=1;shape=mxgraph.aws3.traditional_server;fillColor=#7D7C7C;gradientColor=none;" vertex="1" parent="1">
          <mxGeometry x="550" y="283" width="46.5" height="63" as="geometry" />
        </mxCell>
        <mxCell id="lz8E1Br5oGqlgCtG2SRh-5" value="Ticket Server" style="outlineConnect=0;dashed=0;verticalLabelPosition=bottom;verticalAlign=top;align=center;html=1;shape=mxgraph.aws3.traditional_server;fillColor=#7D7C7C;gradientColor=none;" vertex="1" parent="1">
          <mxGeometry x="600" y="113" width="46.5" height="63" as="geometry" />
        </mxCell>
        <mxCell id="lz8E1Br5oGqlgCtG2SRh-6" value="Elastic &amp;amp; Kibana" style="outlineConnect=0;dashed=0;verticalLabelPosition=bottom;verticalAlign=top;align=center;html=1;shape=mxgraph.aws3.traditional_server;fillColor=#7D7C7C;gradientColor=none;" vertex="1" parent="1">
          <mxGeometry x="363.37" y="113" width="46.5" height="60" as="geometry" />
        </mxCell>
        <mxCell id="lz8E1Br5oGqlgCtG2SRh-19" style="edgeStyle=orthogonalEdgeStyle;rounded=0;orthogonalLoop=1;jettySize=auto;html=1;entryX=1;entryY=0.5;entryDx=0;entryDy=0;entryPerimeter=0;startArrow=classic;startFill=1;" edge="1" parent="1" source="lz8E1Br5oGqlgCtG2SRh-5" target="lz8E1Br5oGqlgCtG2SRh-6">
          <mxGeometry relative="1" as="geometry" />
        </mxCell>
        <mxCell id="lz8E1Br5oGqlgCtG2SRh-20" value="Alerts and Tickets" style="edgeLabel;html=1;align=center;verticalAlign=middle;resizable=0;points=[];" vertex="1" connectable="0" parent="lz8E1Br5oGqlgCtG2SRh-19">
          <mxGeometry x="0.1877" y="1" relative="1" as="geometry">
            <mxPoint as="offset" />
          </mxGeometry>
        </mxCell>
        <mxCell id="lz8E1Br5oGqlgCtG2SRh-24" style="rounded=0;orthogonalLoop=1;jettySize=auto;html=1;entryX=0;entryY=0.5;entryDx=0;entryDy=0;entryPerimeter=0;" edge="1" parent="1" source="lz8E1Br5oGqlgCtG2SRh-1" target="lz8E1Br5oGqlgCtG2SRh-6">
          <mxGeometry relative="1" as="geometry" />
        </mxCell>
        <mxCell id="lz8E1Br5oGqlgCtG2SRh-25" value="Forward Logs Via Agent" style="edgeLabel;html=1;align=center;verticalAlign=middle;resizable=0;points=[];" vertex="1" connectable="0" parent="lz8E1Br5oGqlgCtG2SRh-24">
          <mxGeometry x="-0.1482" y="2" relative="1" as="geometry">
            <mxPoint as="offset" />
          </mxGeometry>
        </mxCell>
        <mxCell id="lz8E1Br5oGqlgCtG2SRh-28" value="Private Network 172.131.0.0/24" style="text;html=1;align=center;verticalAlign=middle;whiteSpace=wrap;rounded=0;" vertex="1" parent="1">
          <mxGeometry x="-20" y="128" width="400" height="30" as="geometry" />
        </mxCell>
        <mxCell id="lz8E1Br5oGqlgCtG2SRh-35" value="" style="edgeStyle=orthogonalEdgeStyle;rounded=0;orthogonalLoop=1;jettySize=auto;html=1;" edge="1" parent="1" source="lz8E1Br5oGqlgCtG2SRh-30" target="lz8E1Br5oGqlgCtG2SRh-31">
          <mxGeometry relative="1" as="geometry" />
        </mxCell>
        <mxCell id="lz8E1Br5oGqlgCtG2SRh-30" value="" style="outlineConnect=0;dashed=0;verticalLabelPosition=bottom;verticalAlign=top;align=center;html=1;shape=mxgraph.aws3.internet_gateway;fillColor=#F58534;gradientColor=none;" vertex="1" parent="1">
          <mxGeometry x="370.5" y="10" width="49.5" height="40" as="geometry" />
        </mxCell>
        <mxCell id="lz8E1Br5oGqlgCtG2SRh-31" value="VPC" style="sketch=0;outlineConnect=0;gradientColor=none;html=1;whiteSpace=wrap;fontSize=12;fontStyle=0;shape=mxgraph.aws4.group;grIcon=mxgraph.aws4.group_vpc;strokeColor=#B6BABF;fillColor=none;verticalAlign=top;align=left;spacingLeft=30;fontColor=#B6BABF;dashed=0;" vertex="1" parent="1">
          <mxGeometry x="70" y="100" width="650" height="300" as="geometry" />
        </mxCell>
        <mxCell id="lz8E1Br5oGqlgCtG2SRh-34" style="edgeStyle=orthogonalEdgeStyle;rounded=0;orthogonalLoop=1;jettySize=auto;html=1;" edge="1" parent="1" source="lz8E1Br5oGqlgCtG2SRh-32" target="lz8E1Br5oGqlgCtG2SRh-30">
          <mxGeometry relative="1" as="geometry" />
        </mxCell>
        <mxCell id="lz8E1Br5oGqlgCtG2SRh-32" value="" style="image;aspect=fixed;perimeter=ellipsePerimeter;html=1;align=center;shadow=0;dashed=0;spacingTop=3;image=img/lib/active_directory/internet_cloud.svg;" vertex="1" parent="1">
          <mxGeometry x="370" y="-130" width="50" height="31.5" as="geometry" />
        </mxCell>
        <mxCell id="lz8E1Br5oGqlgCtG2SRh-37" style="edgeStyle=orthogonalEdgeStyle;rounded=0;orthogonalLoop=1;jettySize=auto;html=1;" edge="1" parent="1" source="lz8E1Br5oGqlgCtG2SRh-36" target="lz8E1Br5oGqlgCtG2SRh-32">
          <mxGeometry relative="1" as="geometry" />
        </mxCell>
        <mxCell id="lz8E1Br5oGqlgCtG2SRh-36" value="SOC ANALYST" style="pointerEvents=1;shadow=0;dashed=0;html=1;strokeColor=none;fillColor=#4495D1;labelPosition=center;verticalLabelPosition=bottom;verticalAlign=top;align=center;outlineConnect=0;shape=mxgraph.veeam.laptop;" vertex="1" parent="1">
          <mxGeometry x="110" y="-136" width="58.4" height="44" as="geometry" />
        </mxCell>
        <mxCell id="lz8E1Br5oGqlgCtG2SRh-38" value="Cloud" style="text;html=1;align=center;verticalAlign=middle;whiteSpace=wrap;rounded=0;" vertex="1" parent="1">
          <mxGeometry x="90" y="20" width="60" height="30" as="geometry" />
        </mxCell>
        <mxCell id="lz8E1Br5oGqlgCtG2SRh-41" style="edgeStyle=orthogonalEdgeStyle;rounded=0;orthogonalLoop=1;jettySize=auto;html=1;entryX=1;entryY=0.75;entryDx=0;entryDy=0;" edge="1" parent="1" source="lz8E1Br5oGqlgCtG2SRh-39" target="lz8E1Br5oGqlgCtG2SRh-32">
          <mxGeometry relative="1" as="geometry" />
        </mxCell>
        <mxCell id="lz8E1Br5oGqlgCtG2SRh-39" value="SOC ANALYST" style="pointerEvents=1;shadow=0;dashed=0;html=1;strokeColor=none;fillColor=#4495D1;labelPosition=center;verticalLabelPosition=bottom;verticalAlign=top;align=center;outlineConnect=0;shape=mxgraph.veeam.laptop;" vertex="1" parent="1">
          <mxGeometry x="610" y="-130" width="58.4" height="44" as="geometry" />
        </mxCell>
        <mxCell id="lz8E1Br5oGqlgCtG2SRh-40" style="edgeStyle=orthogonalEdgeStyle;rounded=0;orthogonalLoop=1;jettySize=auto;html=1;entryX=0.5;entryY=0;entryDx=0;entryDy=0;entryPerimeter=0;" edge="1" parent="1" source="lz8E1Br5oGqlgCtG2SRh-39" target="lz8E1Br5oGqlgCtG2SRh-3">
          <mxGeometry relative="1" as="geometry" />
        </mxCell>
      </root>
    </mxGraphModel>
  </diagram>
</mxfile>
